<?xml version="1.0" standalone="no"?>
<!DOCTYPE svg PUBLIC "-//W3C//DTD SVG 1.0//EN" "http://www.w3.org/TR/2001/REC-SVG-20010904/DTD/svg10.dtd">
<svg xmlns:svg="http://www.w3.org/2000/svg" xmlns="http://www.w3.org/2000/svg" xmlns:xlink="http://www.w3.org/1999/xlink" version="1.0" width="60" height="60" id="svg0">
<defs id="defs0">
  <radialGradient cx="66.7061" cy="22.9419" r="59.3406" fx="66.7061" fy="22.9419" id="rg1" gradientUnits="userSpaceOnUse" spreadMethod="pad">
    <stop style="stop-color:#06c" offset="0" />
    <stop style="stop-color:#039" offset="1" />
    <midPointStop offset="0" style="stop-color:#06c" />
    <midPointStop offset="0.5" style="stop-color:#06c" />
    <midPointStop offset="1" style="stop-color:#039" />
  </radialGradient>
  <linearGradient x1="85.7598" y1="12.79" x2="85.7598" y2="44.682" id="lg1" gradientUnits="userSpaceOnUse" spreadMethod="pad">
    <stop style="stop-color:#fff" offset="0" />
    <stop style="stop-color:#0d3692" offset="1" />
    <midPointStop offset="0" style="stop-color:#fff" />
    <midPointStop offset="0.5" style="stop-color:#fff" />
    <midPointStop offset="1" style="stop-color:#0d3692" />
  </linearGradient>
  <radialGradient cx="66.7061" cy="22.9419" r="59.3406" fx="66.7061" fy="22.9419" id="rg2" xlink:href="#rg1" gradientUnits="userSpaceOnUse" spreadMethod="pad" />
  <linearGradient x1="85.7598" y1="12.79" x2="85.7598" y2="44.682" id="lg2" xlink:href="#lg1" gradientUnits="userSpaceOnUse" spreadMethod="pad" />
</defs>
<g transform="matrix(0.71714,0,0,0.71744,-32.79375,1.5)">
  <path d="M 50.789,40.843 C 50.789,62.13 68.107,79.449 89.393,79.449 C 110.682,79.449 128,62.13 128,40.843 C 128,19.556 110.682,2.238 89.394,2.238 C 68.107,2.238 50.789,19.556 50.789,40.843 z" id="p1" style="opacity:0.36;fill:#999" />
  <path d="M 47.123,38.605 C 47.123,59.892 64.441,77.21 85.728,77.21 C 107.016,77.21 124.333,59.892 124.333,38.605 C 124.333,17.318 107.016,0 85.728,0 C 64.441,0 47.123,17.318 47.123,38.605 z" id="p2" style="fill:#0066cc" />
  <path d="M 49.919,38.046 C 49.919,57.822 65.952,73.855 85.727,73.855 C 105.504,73.855 121.535,57.822 121.535,38.046 C 121.535,18.27 105.505,2.238 85.728,2.238 C 65.952,2.238 49.919,18.27 49.919,38.046 z" id="p3" style="fill:url(#rg2)" />
  <path d="M 53.836,41.543 C 53.836,20.544 68.839,3.394 87.72,2.296 C 87.061,2.26 86.397,2.238 85.728,2.238 C 65.953,2.238 49.92,18.27 49.92,38.046 C 49.92,47.181 53.347,55.511 58.976,61.837 C 55.715,55.913 53.836,48.969 53.836,41.543 z" id="p4" style="opacity:0.36;fill:#fff" />
  <path d="M 86.278,36.289 C 98.401,36.289 109.561,34.527 118.423,31.574 C 115.594,14.889 102.038,2.239 85.73,2.239 C 69.539,2.239 56.056,14.711 53.097,31.22 C 62.116,34.386 73.675,36.289 86.278,36.289 z" id="p5" style="opacity:0.5;fill:url(#lg2)" />
</g>
<path d="M 30.2672,8.9375 C 23.87,8.91418 16.7543,11.481 16.7603,17.9375 C 17.0346,22.0966 20.83436,23.29226 23.91657,21.15625 C 24.69604,20.48413 25.105,19.60816 25.1353,18.5 C 25.17927,17.2886 24.62937,16.49857 23.91657,16.125 C 23.20376,15.75149 22.79964,15.36676 22.69782,15 C 23.04105,12.31378 25.7631,12.34918 27.85407,12.25 C 32.12483,12.2068 34.75431,14.07973 34.9584,18.5 C 35.15987,22.86225 31.26174,25.94821 27.86468,27.89937 C 26.23048,28.838 26.23334,30.0564 26.40281,32.3958 C 26.59719,34.97135 26.8419,36.3221 26.9097,37.15625 L 29.87514,37.09375 C 29.98665,34.91383 30.32535,32.2205 30.9897,31.02107 C 32.31662,28.89335 36.1537,29.3676 39.8959,25.125 C 43.56346,21.23535 43.0317,14.864 37.7328,11.30218 C 35.1514,9.567 33.15,8.948 30.26,8.9375 z M 28.6875,39.8125 C 26.28795,39.8125 24.2805,41.8175 24.28125,44.21875 C 24.28125,46.62 26.288,48.59375 28.6875,48.59375 C 31.08776,48.59375 33.0625,46.6193 33.0625,44.21875 C 33.0625,41.81747 31.08776,39.8125 28.6875,39.8125 z" id="?" style="fill:#fff" />
</svg>